<svg width="416" height="591" viewBox="0 0 416 591" fill="none" xmlns="http://www.w3.org/2000/svg">
<g clip-path="url(#clip0_274_750)">
<path fill-rule="evenodd" clip-rule="evenodd" d="M18.69 603.406C8.97976 602.937 12.8853 585.949 13.5822 579.71C21.2701 556.922 19.4628 532.06 22.4865 508.174C24.3702 485.877 26.7904 463.649 28.8263 441.369C32.8248 396.143 61.538 304.074 94.3051 289.267C98.4327 271.152 115.481 254.242 137.051 254.242C151.763 236.824 169.47 224.565 192.182 227.04C201.568 227.468 210.67 237.424 219.663 239.347C224.699 240.041 269.386 238.254 278.338 243.571C284.573 246.774 290.202 252.691 288.369 260.225C285.444 269.352 294.534 259.476 313.498 269.218C352.168 292.447 329.06 323.523 328.036 324.486C352.168 358.068 373.26 385.313 383.019 426.36C389.344 456.834 388.632 488.293 393.931 518.924C395.802 529.544 398.673 539.802 401.779 550.116C405.145 563.614 406.782 597.256 408.637 597.557C412.017 598.397 406.684 605.338 403.103 605.344C303.807 621.818 202.948 606.026 103.119 603.446C74.9855 602.468 46.8219 602.242 18.69 603.406Z" fill="#FDFFFC"/>
<path fill-rule="evenodd" clip-rule="evenodd" d="M169.186 327.454C169.139 327 168.526 327.001 168.479 327.454L167.778 334.223C166.925 342.49 166.104 350.741 165.509 359.047C164.767 369.404 164.27 379.758 164.031 390.139C163.197 426.291 163.031 462.462 162.961 498.623C158.072 498.284 153.182 497.958 148.29 497.642C144.97 497.428 141.651 497.222 138.331 497.02L129.866 496.506V496.506L126.381 496.292C124.026 496.147 121.351 495.554 119.704 497.64C119.045 498.475 118.715 499.561 119.329 500.553C120.746 502.84 122.924 502.76 125.386 502.859C127.709 502.953 130.033 503.045 132.356 503.134C137.335 503.328 142.313 503.51 147.293 503.65C152.52 503.797 157.744 503.916 162.968 504.005C163.021 519.27 163.652 534.517 164.335 549.766L164.644 556.628C165.48 575.185 166.379 593.759 167.655 612.291C167.76 613.808 169.906 613.805 170.01 612.291C171.448 591.421 172.397 570.506 173.337 549.607C174.02 534.455 174.417 519.298 174.606 504.14C175.296 504.144 175.987 504.154 176.677 504.156C196.286 504.242 215.89 504.327 235.499 504.143C235.466 504.182 235.434 504.221 235.412 504.272C233.994 507.622 233.858 511.898 233.893 515.494C233.933 519.618 234.488 523.692 235.438 527.702C238.84 542.069 247.615 554.937 257.61 565.576L257.937 565.922C260.294 568.414 262.999 570.917 264.446 574.09C265.925 577.331 266.438 581.121 267.168 584.603L267.253 585.003L270.106 598.183C271.012 602.369 271.269 608.475 274.583 611.495C277.674 614.313 281.769 612.842 283.223 609.213C284.359 606.381 283.228 603.271 282.555 600.441L277.284 578.278C276.418 574.664 275.471 571.026 273.602 567.779C271.687 564.454 268.88 562.043 266.015 559.577C260.591 554.906 255.612 549.559 251.401 543.769C247.192 537.982 243.594 531.603 241.072 524.895C239.808 521.537 238.773 518.048 238.059 514.531C237.381 511.194 237.387 507.737 236.661 504.435C236.611 504.207 236.418 504.051 236.198 503.981C236.25 503.834 236.17 503.635 235.964 503.622L219.927 502.591C205.672 501.672 191.417 500.728 177.175 499.65L174.658 499.469V499.469C174.854 479.243 174.688 459.014 174.323 438.781C173.988 420.228 173.981 401.669 173.429 383.118C173.155 373.911 172.564 364.725 171.905 355.537C171.232 346.14 170.154 336.823 169.186 327.454ZM319.764 435.032C319.935 434.002 318.64 433.364 318.042 434.306C311.213 445.072 307.921 456.766 306.533 469.364C305.307 480.483 305.668 491.762 306.279 502.911C306.93 514.801 307.69 526.688 308.458 538.572L309.638 556.796V556.796L312.6 602.482C312.812 605.751 313.554 608.722 316.367 610.241C316.723 610.539 317.095 610.806 317.527 611.037C319.047 611.849 321.063 611.439 321.942 609.879L321.589 610.111C321.282 610.304 321.627 610.034 322.623 609.302L323.469 608.208V608.208C324.084 607.284 324.476 606.376 324.634 605.278C324.879 603.571 324.561 601.7 324.45 599.985L322.508 570.027V570.027C320.999 546.737 319.235 523.454 317.906 500.153C317.287 489.292 316.854 478.422 317.147 467.542C317.44 456.724 317.991 445.721 319.764 435.032ZM260.691 234.487L260.312 234.423C246.748 232.17 232 232.591 219.604 239.131C219.501 239.185 219.548 239.355 219.663 239.35L223.653 239.191C236.284 238.696 248.876 238.403 261.295 241.371L262.567 241.678C267.039 242.769 271.71 244.105 275.302 247.059C278.736 249.884 280.446 254.24 282.09 258.251L282.31 258.78C283.978 262.742 286.089 266.499 289.745 268.976C294.481 272.183 300.176 271.79 305.606 272.226C315.166 272.995 322.983 279.925 326.872 288.405C329.227 293.54 330.231 299.298 330.43 304.913C330.532 307.772 330.547 310.743 330.166 313.583C330.044 314.491 328.922 317.799 328.35 317.72C327.078 317.543 325.915 318.207 325.519 319.223C322.377 316.188 319.146 313.24 315.81 310.398C307.495 303.315 298.539 296.896 289.107 291.38C281.909 287.17 274.316 282.999 266.453 279.845C267.076 279.832 267.69 279.956 268.285 280.265C268.545 280.401 268.804 280.074 268.598 279.858C266.122 277.252 263.155 276.881 260.165 277.576C259.527 277.373 258.888 277.177 258.247 276.99C257.928 276.897 257.769 277.337 258.029 277.507L258.764 277.976V277.976C255.502 279.069 252.298 281.218 249.763 282.913C242.478 287.783 236.066 293.735 229.567 299.576L228.385 300.635C222.664 305.745 216.797 310.71 210.297 314.809C206.894 316.954 203.321 318.939 199.572 320.415C196.357 321.682 191.122 322.479 189.616 325.878C188.277 327.504 188.837 329.58 190.404 330.674C193.048 333.585 198.337 331.705 201.487 330.492C205.285 329.031 208.965 327.275 212.474 325.215C219.286 321.214 225.568 316.241 231.419 310.95C237.531 305.424 243.295 299.553 249.239 293.854C251.814 291.384 254.33 288.857 256.91 286.391L258.205 285.164C259.522 283.929 261.397 282.004 263.402 280.839C267.18 283.093 271.017 285.254 274.76 287.566C279.986 290.794 285.058 294.254 290.052 297.828C299.666 304.708 308.776 312.415 317.234 320.675C332.745 335.822 345.961 353.12 357.505 371.436L358.382 372.832C364.942 383.316 371.146 394.137 375.545 405.721C380.385 418.468 382.739 431.873 384.018 445.404C385.287 458.838 385.715 472.34 387.134 485.762C388.588 499.527 391.454 512.989 394.714 526.425L395.491 529.61C398.441 541.644 401.486 553.677 403.002 565.994C403.811 572.574 404.298 579.243 404.188 585.876C404.078 592.547 403.029 599.071 402.184 605.672C401.86 608.201 404.348 610.311 406.574 610.646C409.135 611.031 411.334 609.397 412.13 607.018C414.611 599.602 415.062 591.404 414.984 583.62C414.906 575.717 413.897 567.866 412.478 560.1C409.688 544.823 405.381 529.863 401.779 514.769C398.604 501.466 396.473 488.139 395.324 474.51C394.132 460.371 393.418 446.184 391.243 432.146C389.096 418.288 385.056 405.05 378.964 392.414C373.417 380.908 366.503 370.079 359.253 359.582C350.45 346.836 340.782 334.707 329.974 323.656C330.945 323.613 331.941 323.3 332.857 322.729C335.658 320.982 336.962 317.564 337.363 314.443C338.301 307.142 338.075 299.521 336.198 292.383C333.169 280.868 325.31 270.638 313.92 266.487C310.988 265.419 307.871 265.029 304.764 264.952C301.816 264.878 298.596 265.263 295.751 264.328C291.223 262.839 289.282 257.505 287.582 253.462L287.503 253.276C285.323 248.123 282.706 243.707 277.984 240.49C272.947 237.056 266.635 235.495 260.691 234.487V234.487ZM131.816 254.865C127.74 253.451 122.644 254.734 118.658 255.969C114.218 257.346 110.114 259.882 106.596 262.894C102.884 266.07 99.8169 269.992 97.6499 274.373L97.4427 274.795C95.4633 278.86 93.2091 284.439 94.2071 288.904C94.2358 289.03 94.2684 289.152 94.3056 289.271C86.2188 293.252 78.7504 298.24 72.2468 304.561C64.6739 311.92 58.2617 320.295 52.8353 329.343C31.2835 365.28 27.4904 408.439 24.9449 449.421L24.3101 459.812C22.9281 482.251 21.3105 504.636 17.1089 526.765L16.8024 528.362C12.3112 551.531 5.88221 574.877 6.53348 598.644C6.72894 605.766 17.2511 605.717 17.5561 598.644C18.7047 572.023 24.9159 546.319 29.1219 520.114C36.5224 474.009 32.8144 426.478 43.3004 380.835C47.4154 362.923 53.7899 345.549 62.8927 329.56C67.3891 321.661 72.5337 314.029 78.56 307.215C83.7447 301.352 89.1334 295.709 95.1924 290.78C97.1288 292.72 100.997 291.732 102.008 288.904C102.702 286.96 102.5 284.688 102.946 282.652C103.359 280.763 103.929 278.89 104.689 277.111C106.204 273.566 108.426 270.161 110.992 267.291C113.764 264.19 116.95 261.613 120.515 259.485C124.105 257.342 128.03 256.703 131.816 255.137C131.943 255.084 131.955 254.914 131.816 254.865ZM115.979 501.262C115.973 501.075 115.753 500.987 115.617 501.112C114.188 502.427 113.324 504.315 112.273 505.933C111.06 507.798 109.786 509.625 108.451 511.405C105.775 514.971 102.796 518.332 99.793 521.626C97.0004 524.688 94.0239 527.622 90.9364 530.387C87.5911 533.383 83.8424 536.056 80.8031 539.374C74.4613 546.297 73.4365 555.799 72.0986 564.721L71.952 565.686C71.136 570.981 70.405 576.29 69.7458 581.607C69.4252 584.193 69.1057 586.781 68.8444 589.374L68.7646 590.195C68.5317 592.734 68.4688 595.309 69.9261 597.526C71.4862 599.899 75.033 600.731 77.1418 598.456C80.7649 594.547 80.0856 587.605 80.5569 582.577C80.9462 578.419 81.3879 574.267 81.8824 570.12L82.1341 568.048C82.7169 563.331 83.1902 558.52 84.2689 553.885C85.2201 549.803 87.0324 546.723 90.0059 543.766C93.0014 540.787 96.1141 538.006 98.879 534.799C101.812 531.396 104.457 527.748 106.841 523.941C108.879 520.684 110.514 517.141 112.011 513.601L112.259 513.011C113.706 509.559 116.092 505.065 115.979 501.262ZM63.6691 352.987C63.6374 352.506 62.926 352.498 62.9154 352.987C62.8255 357.128 62.7391 361.27 62.6532 365.411C61.9618 398.781 62.3879 432.231 59.0406 465.487C57.4619 481.167 54.5547 496.616 51.1909 512.001C49.4695 519.874 47.6637 527.727 45.9479 535.601C44.2757 543.274 42.4825 550.985 41.1561 558.73C39.8526 566.342 38.6853 574.012 38.1613 581.722L38.0967 582.728C37.8711 586.462 36.7943 591.955 38.8503 595.265C41.0782 598.852 45.3434 598.916 47.7305 595.492C49.9719 592.279 49.4147 586.562 49.8107 582.728C50.2131 578.821 50.6387 574.912 51.122 571.015C52.0651 563.413 53.3077 555.828 54.6 548.277C57.2916 532.553 61.1956 517.028 64.0771 501.329C67.0305 485.243 69.1297 469.042 69.2181 452.663C69.306 436.146 67.558 419.661 66.6757 403.18C65.7794 386.441 64.7604 369.714 63.6691 352.987ZM221.276 249.194C220.38 246.177 217.219 244.291 214.135 245.138C211.308 245.915 208.975 249.346 210.08 252.281C211.286 255.485 213.393 258.216 215.17 261.127C216.811 263.817 219.204 265.936 220.876 268.578L219.034 270.564C218.112 271.555 217.188 272.54 216.253 273.508L213.04 276.837C210.538 279.424 208.02 281.997 205.431 284.494C197.818 291.839 190.085 298.943 181.559 305.233C179.618 306.664 177.662 308.087 175.651 309.42L174.901 309.917C173.521 310.82 171.982 311.708 170.316 311.555C166.266 311.183 162.607 306.882 159.825 304.205L159.679 304.065C152.783 297.502 146.397 290.327 140.815 282.612C139.575 280.898 138.375 279.154 137.206 277.39C139.905 274.237 139.261 268.081 139.409 264.257C139.514 261.567 139.522 258.878 139.537 256.187L139.544 255.644C139.577 253.902 139.656 252.232 138.526 250.798C138.46 250.715 138.324 250.718 138.24 250.762C136.692 251.573 136.215 252.931 135.554 254.455L135.485 254.613C134.681 256.442 133.912 258.288 133.133 260.127C132.317 262.053 131.57 264.007 130.812 265.956C130.459 266.862 130.123 267.772 129.794 268.688C129.593 269.272 129.386 269.853 129.173 270.434L129.122 270.479C128.841 270.717 128.602 270.97 128.397 271.23C127.533 271.662 126.847 272.45 126.525 273.607C125.824 276.125 127.274 278.178 128.568 280.177C133.824 288.298 139.815 296.037 146.474 303.057C149.782 306.545 153.262 309.876 156.884 313.035L157.518 313.584C160.772 316.381 164.305 319.031 168.651 319.685C173.737 320.45 177.877 317.92 181.77 315.006L182.158 314.714C185.849 311.919 189.466 309.026 192.97 306C200.114 299.831 206.911 293.207 212.943 285.94C218.81 278.871 224.61 270.967 228.227 262.461C228.447 261.943 227.867 261.401 227.413 261.833C225.647 263.515 223.947 265.289 222.267 267.085C222.22 264.441 222.708 261.774 222.437 259.114C222.106 255.88 222.201 252.307 221.276 249.194Z" fill="#262626"/>
<path fill-rule="evenodd" clip-rule="evenodd" d="M105.278 87.0517C107.218 75.3126 100.851 72.8769 105.278 61.7178C115.117 41.041 141.93 41.9319 161.606 40.3421C183.552 39.5009 205.764 42.3987 225.995 51.1964C230.828 53.2976 235.476 55.7688 239.932 58.5763C243.784 61.0044 243.255 65.6208 240.825 68.1391C258.343 92.951 248.324 126.256 262.301 152.373C264.883 157.042 268.299 161.228 270.543 166.086C273.955 173.47 274.173 184.05 266.436 188.953C255.54 194.803 249.459 183.221 244.105 200.011C217.366 258.553 163.605 261.85 112.569 231.328C108.153 228.872 103.647 226.095 100.313 222.236C92.7442 213.717 93.6356 201.737 93.4683 191.099C93.3748 184.864 93.3592 178.629 93.42 172.394C93.6582 147.137 102.027 112.101 105.278 87.0517Z" fill="#FDFFFC"/>
<path fill-rule="evenodd" clip-rule="evenodd" d="M213.982 16.8392C183.167 2.85819 148.217 -2.44373 114.603 1.03393C98.012 2.74773 81.6394 6.42456 66.0581 12.3972L64.6923 12.9251C60.846 14.4058 56.6999 15.8755 53.777 18.8896C50.375 22.3923 49.4209 27.6892 51.8527 32.0162C53.7419 35.3783 57.1384 37.79 60.761 39.077C59.4848 40.1223 58.2739 41.2883 57.1384 42.5899C55.2241 44.7709 55.0784 47.8812 57.1384 50.0326C61.1077 54.1787 66.2578 57.1784 71.8048 58.6162C71.1817 61.6265 71.5184 64.9584 72.8549 67.9586C76.69 76.5708 87.4932 77.5972 95.8066 77.0858L96.0578 77.0699L96.52 82.3617C96.7662 85.1811 98.4545 87.3672 101.318 87.7993C101.419 87.8144 101.52 87.8245 101.62 87.834C97.0878 104.228 94.3495 121.128 91.8222 137.929C90.5018 146.699 89.3197 155.489 88.1881 164.285L87.8127 167.217C86.6068 176.701 85.0995 186.279 84.5769 195.833C84.1097 204.502 85.7627 212.779 91.1037 219.774C95.897 226.046 102.434 230.745 109.463 234.233C125.345 242.117 142.062 247.987 159.627 250.711L160.799 250.892C167.579 251.927 174.565 252.799 181.272 250.922C187.166 249.274 212 238 212 238L210.605 231.278C210.605 231.278 203.088 235.186 198.5 237C192.158 239.507 190 240.5 187.5 241.5C184.89 242.122 176.042 244.756 173.083 244.791C164.817 244.887 156.211 242.826 148.252 240.761C133.389 236.902 118.125 230.609 105.951 221.076C100.771 217.025 96.6105 211.96 95.1434 205.442C93.3295 197.406 94.9977 188.621 95.8217 180.545C97.5174 163.881 99.5355 147.247 101.665 130.633L102.092 127.31C103.885 113.419 105.77 99.5239 106.664 85.5529C107.036 85.0454 107.287 84.4674 107.388 83.8342L107.528 82.9246C107.649 82.1457 107.669 81.432 107.584 80.7737C107.579 78.2509 107.509 75.7432 107.363 73.2198C107.338 72.768 107.318 72.3157 107.303 71.8685C109.925 72.4464 112.568 72.9138 115.221 73.3108C133.872 76.1201 152.814 76.8236 171.615 75.4265C180.996 74.7275 190.306 73.5269 199.587 72.0243C204.31 71.2604 209.018 70.4161 213.71 69.4713C217.102 68.7929 220.423 67.8732 223.759 67.0088C227.201 72.0192 229.06 78.1856 228.698 84.2413C228.291 91.1514 223.689 97.4182 224.98 104.479C226.192 111.087 231.852 113.136 237.44 114.773L239.817 115.459C241.646 115.993 242.973 116.508 243.304 118.706C243.872 122.48 243.174 126.727 243.028 130.521C242.852 135.009 242.622 139.497 242.516 143.985C242.46 146.306 242.37 148.638 242.375 150.96C242.38 152.608 242.626 153.734 243.264 154.799C242.772 155.418 242.33 156.086 241.938 156.795C241.812 157.026 242.124 157.271 242.309 157.081C242.807 156.563 243.335 156.096 243.892 155.678C244.174 156.026 244.5 156.377 244.883 156.754L244.912 156.714C246.108 157.905 248.007 158.021 249.49 156.754L249.879 156.417C250.964 155.466 251.71 154.673 252.012 153.101C252.027 153.02 252.042 152.94 252.052 152.86C254.81 152.764 257.614 153.417 260.096 154.789C264.03 156.965 266.799 160.066 268.436 163.896C267.783 164.659 267.02 165.343 266.13 165.916C266.005 166.001 266.115 166.187 266.251 166.122C267.16 165.695 267.974 165.167 268.703 164.549C269.291 166.057 269.703 167.675 269.954 169.388C270.838 175.439 269.261 182.832 263.794 186.279C261.428 187.772 258.724 188.581 255.921 188.591C254.555 188.596 253.373 188.365 252.047 188.038C251.148 187.817 250.253 187.495 249.314 187.495C248.51 187.495 247.766 187.696 247.078 188.098L247.269 188.115C247.733 188.159 247.643 188.178 246.997 188.178C244.988 188.264 243.837 190.305 244.761 192.079L244.883 192.353C244.908 192.408 244.93 192.454 244.947 192.49L245.02 192.961C245.027 193.006 245.035 193.052 245.043 193.099L245.071 193.194C245.076 193.209 245.081 193.224 245.088 193.24L242.074 197.837C238.378 203.461 234.6 209.064 230.301 214.201C227.286 217.804 224.091 221.337 220.714 224.609C217.68 227.549 210.605 231.278 210.605 231.278L211.517 235.704L212 238C212 238 229.303 224.714 232.132 220.206C237.152 212.191 244.661 204.482 246.409 195.23C247.138 195.898 248.068 196.315 249.007 196.642C250.891 197.295 252.966 197.567 254.956 197.637C258.77 197.763 262.588 196.838 266.02 195.2C279.983 188.541 282.033 168.599 273.496 156.84C274.647 153.501 275.29 149.878 275.989 146.789L276.306 145.408C279.837 129.984 282.207 113.744 275.948 98.6293C275.144 96.6794 274.24 94.7798 273.17 92.9606C272.311 91.4981 270.833 89.9402 270.426 88.2768C269.522 84.6232 275.104 80.7837 276.732 77.884C278.646 74.4817 278.918 70.4664 276.31 67.3551C275.978 66.9636 275.617 66.6012 275.225 66.2851C277.697 61.8024 277.812 56.1638 274.556 51.7413C272.416 48.8265 269.15 46.7862 265.583 46.168C263.402 45.7911 260.779 45.9318 258.383 46.6052C245.259 34.4184 230.286 24.2367 213.982 16.8392ZM264.377 169.328C260.875 166.238 257.006 164.619 252.233 165.026C247.434 165.438 241.656 167.424 238.838 171.539C236.612 174.791 241.149 179.56 244.415 177.118C247.389 174.891 249.374 172.379 253.067 171.183C256.383 170.112 260.488 169.424 263.96 170.037C264.342 170.102 264.723 169.63 264.377 169.328Z" fill="#262626"/>
<path fill-rule="evenodd" clip-rule="evenodd" d="M97.4087 137.843C102.199 170.252 135.639 173.836 141.58 141.662C140.627 141.244 139.941 140.422 140.084 138.826C140.118 131.814 137.941 124.404 131.618 120.504C125.083 116.481 117.435 116.082 109.873 116.184C95.4416 115.84 95.7451 127.905 97.4087 137.843M146.816 123.748C151.345 123.557 157.075 123.717 161.132 126.477C162.248 123.473 165.146 120.265 168.074 118.55C157.19 118.869 145.987 117.797 135.021 116.965C137.646 118.755 140.088 121.444 141.675 124.552C143.148 123.766 145.257 123.84 146.816 123.748M166.778 141.279C179.337 184.517 210.685 165.671 214.102 160.13C220.267 150.96 221.426 128.67 216.057 122.71C208.37 117.321 197.489 118.708 188.409 118.576C171.727 118.801 159.879 123.792 166.778 141.279M82.5805 121.393C85.9926 120.947 89.6388 120.857 92.8113 122.36C93.788 118.207 96.8544 114.735 100.317 113.208C100.736 112.682 100.673 112.4 102.104 112.478C110.895 109.836 120.731 111.234 129.178 113.944C142.519 115.068 156.516 115.954 169.969 117.502C182.571 111.841 220.603 111.011 222.966 124.964C225.939 124.519 231.002 122.179 233.5 125.353C251.825 122.246 270.76 126.564 289.164 128.488C293.796 129.341 296.182 138.537 290.924 138.411C287.967 137.609 291.015 132.685 287.034 132.315C269.277 130.375 251.908 127.623 233.97 127.301C234.594 130.399 222.105 130.6 221.921 128.791C221.894 128.805 221.866 128.814 221.839 128.826C224.925 140.329 222.139 156.884 216.562 164.018C208.748 173.358 189.13 176.038 180.431 170.028C169.21 164.481 157.537 136.639 160.816 127.389C154.865 125.503 148.982 126.069 142.806 127.03C144.219 131.025 146.66 140.859 143.149 141.711C143.793 161.235 126.028 173.418 109.652 165.409C95.4772 158.753 90.5201 137.687 92.2545 124.901C90.49 128.311 75.6739 124.598 82.5805 121.393" fill="#262626"/>
<path fill-rule="evenodd" clip-rule="evenodd" d="M157.577 205.971C160.951 204.592 172.68 198.552 174.881 195.614C175.646 194.592 175.844 193.514 175.684 192.527C175.503 191.418 174.848 190.413 173.955 189.738C173.059 189.062 171.937 188.728 170.854 188.898C169.912 189.046 168.974 189.563 168.233 190.634L168.077 190.848C166.769 192.621 156.346 197.817 154.403 198.755C152.53 199.659 150.436 200.08 148.269 199.835C144.141 199.368 141.296 197.132 138.272 194.095C137.897 193.712 137.522 193.316 137.145 192.915C136.907 192.55 136.577 192.316 136.21 192.193C135.803 192.057 135.342 192.065 134.92 192.212C134.513 192.355 134.15 192.624 133.906 192.983C133.674 193.324 133.542 193.745 133.585 194.23C133.862 197.377 135.504 200.185 137.837 202.391C140.429 204.84 143.863 206.534 147.097 207.129C150.66 207.783 154.29 207.314 157.577 205.971ZM145.416 157.421C141.626 159.729 135.851 165.111 139.928 170.832C144.728 175.877 151.638 170.093 155.043 167.477C158.201 165.449 161.748 170.664 158.819 173.031C134.213 191.28 124.227 158.025 143.499 154.708C145.621 154.342 146.409 156.707 145.416 157.421ZM195.738 136.193C195.319 130.986 187.403 129.804 186.615 134.956C185.91 139.572 186.74 143.812 188.816 147.968C190.799 151.938 195.783 150.085 196.16 146.47C196.665 141.624 195.999 139.432 195.738 136.193ZM134.23 133.888C133.126 132.44 131.532 131.451 129.623 132.01C123.658 133.756 125.416 142.24 127.511 146.369C128.649 148.612 132.329 149.18 133.992 147.206C136.702 143.986 138 137.556 134.554 134.384C134.461 134.22 134.357 134.055 134.23 133.888ZM186.016 116.251L185.06 116.293C182.105 116.428 178.461 116.735 176.952 119.472C176.151 120.924 176.281 123.264 177.973 124.111C180.95 125.601 183.567 124.192 186.631 123.697C189.157 123.29 191.644 123.174 194.198 123.332C199.801 123.678 204.702 125.484 209.869 127.515C210.547 127.782 210.983 126.892 210.579 126.401C206.858 121.876 200.901 118.8 195.295 117.36C192.303 116.592 189.108 116.112 186.016 116.251ZM135.309 116.753L134.579 116.664C126.614 115.733 115.903 115.612 109.934 121.757C109.454 122.748 109.521 123.017 109.588 123.201L109.611 123.262C109.664 123.418 109.683 123.614 110.084 123.905C110.219 123.917 110.355 123.927 110.493 123.936C112.25 124.053 113.724 123.896 115.164 123.704L116.727 123.49C118.539 123.246 120.356 123.035 122.202 123.047C126.142 123.075 130.069 123.479 133.925 124.284C134.761 124.458 135.626 124.445 136.392 124.184C137.12 123.935 137.767 123.471 138.241 122.725C138.854 121.759 139.045 120.936 138.798 119.797C138.612 118.941 138.17 118.244 137.568 117.726C136.954 117.199 136.168 116.86 135.309 116.753Z" fill="#262626"/>
</g>
<defs>
<clipPath id="clip0_274_750">
<rect width="416" height="591" fill="white" transform="matrix(-1 0 0 1 416 0)"/>
</clipPath>
</defs>
</svg>
